<svg width="91" height="91" viewBox="0 0 91 91" fill="none" xmlns="http://www.w3.org/2000/svg">
<g filter="url(#filter0_d_19_103)">
<mask id="mask0_19_103" style="mask-type:alpha" maskUnits="userSpaceOnUse" x="12" y="10" width="67" height="67">
<circle cx="45.5" cy="43.5" r="33.5" fill="#C4C4C4"/>
</mask>
<g mask="url(#mask0_19_103)">
<path d="M79 43.5C79 62.0015 64.0015 77 45.5 77C26.9985 77 12 62.0015 12 43.5C12 24.9985 26.9985 10 45.5 10C64.0015 10 79 24.9985 79 43.5Z" fill="white"/>
<path d="M63.6904 75.5939C63.7803 76.6791 63.8252 77.697 63.8177 78.5876V78.6849C64.1994 78.4005 64.5661 78.1086 64.9253 77.7943C64.6048 77.0133 64.1901 76.2744 63.6904 75.5939ZM30.1768 71.2981C27.4024 68.8816 24.7522 66.3263 22.2362 63.6419C20.1315 61.2501 18.4736 58.4997 17.3416 55.5217C15.276 50.1481 23.254 42.4769 23.254 42.4769C24.0772 41.4142 30.289 40.9801 30.072 41.8707C28.5752 45.3583 26.9736 48.8758 25.4019 52.3484C26.1503 54.1296 29.4134 57.4226 32.5791 59.2487C33.133 57.7519 33.7541 56.7416 34.4502 56.4647C34.4502 56.4647 45.6763 54.7807 48.1909 54.9678C51.7459 55.2672 57.0296 57.2729 57.1045 56.8987C57.1793 56.5245 57.4113 55.5965 60.4049 59.6529C63.2208 61.1295 65.7929 63.0302 68.0312 65.2884L68.0911 65.3482C71.168 68.8788 73.0558 73.2881 73.4871 77.9514C73.4871 78.1011 73.4871 78.2508 73.4871 78.2508C73.5998 79.0988 73.4754 79.9614 73.1279 80.743C72.9355 81.123 72.6828 81.4693 72.3795 81.7683C72.3795 81.7683 71.6311 82.4045 70.8827 82.9059C68.8844 84.2455 66.6018 85.1062 64.4912 86.2737C64.2634 86.3476 64.0206 86.363 63.7852 86.3185C63.5498 86.2741 63.3294 86.1712 63.1441 86.0193C62.3957 90.4049 61.2656 94.9178 60.2253 99.2137C58.2046 107.588 53.5346 118.904 51.7159 128.858C51.2893 130.003 44.9279 129.472 44.6959 128.274C44.5761 119.256 46.6941 110.964 46.6791 101.654C44.4938 101.466 40.0333 103.42 39.7264 103.659C38.267 104.797 32.2873 110.492 32.6315 111.009C34.1283 113.254 36.4634 114.855 38.6712 116.36C39.5244 116.951 36.3436 123.148 35.2809 122.759C30.2965 120.918 25.1924 118.478 22.7675 113.882C22.091 112.534 21.6915 111.064 21.5925 109.559C21.4936 108.054 21.6971 106.544 22.1912 105.119C23.3064 101.736 25.5441 98.8919 27.8642 96.2276C28.0962 95.9581 28.3282 95.6962 28.5677 95.4342C28.5095 95.363 28.4723 95.2769 28.4604 95.1856C28.4485 95.0944 28.4623 95.0016 28.5003 94.9178C28.6126 94.6933 28.8221 94.7457 28.9643 94.6185C28.9643 94.6185 28.9643 94.4613 28.9643 94.4389C28.9643 94.2967 28.635 93.8775 28.7248 93.7503C28.8254 93.6494 28.9526 93.5793 29.0916 93.5482C29.0071 93.0539 28.967 92.5529 28.9718 92.0514C28.665 91.4003 29.0167 80.7729 30.1768 71.2981Z" fill="#ED4040"/>
<path fill-rule="evenodd" clip-rule="evenodd" d="M38.8058 68.0799C38.6786 68.3194 38.1921 68.5814 38.0948 68.4616C36.9972 67.0879 36.2521 65.4667 35.9245 63.7392C35.9172 63.5915 35.9587 63.4456 36.0425 63.3239C36.1264 63.2022 36.2479 63.1114 36.3885 63.0656C37.978 62.9496 39.5738 62.9496 41.1633 63.0656C41.2269 63.0887 41.2847 63.1252 41.333 63.1726C41.3812 63.2201 41.4186 63.2773 41.4428 63.3405C41.4669 63.4037 41.4772 63.4713 41.4728 63.5388C41.4685 63.6063 41.4498 63.6721 41.4178 63.7317C40.587 65.004 39.7264 66.3885 38.8058 68.0799Z" fill="#DCDCDC"/>
<path fill-rule="evenodd" clip-rule="evenodd" d="M55.2484 63.5147C55.2484 63.365 55.0164 63.2003 54.8966 63.1928C51.903 63.0881 49.5979 63.2752 47.4125 63.1928C47.2853 63.1928 46.9934 63.365 46.9785 63.4473C46.6202 65.2519 46.605 67.1079 46.9336 68.9182C46.9874 69.0402 47.0712 69.1468 47.1772 69.2279C47.2831 69.309 47.4079 69.3621 47.5398 69.3822C48.8719 69.457 53.6094 69.4495 54.8966 69.3822C54.9949 69.3688 55.0857 69.3221 55.1538 69.2499C55.2219 69.1778 55.2632 69.0844 55.2708 68.9855C55.3082 68.0126 55.3082 64.4801 55.2484 63.5147Z" fill="#DCDCDC"/>
<path d="M57.0895 57.7519C57.5501 58.3283 57.8933 58.9894 58.0998 59.6978C58.8811 62.3009 59.4591 64.9607 59.8286 67.6533C61.1216 76.6595 60.718 85.8281 58.6387 94.6858C58.6387 94.6858 58.5264 95.6887 58.4067 96.5269C57.6059 101.908 55.9519 107.109 54.5149 112.363C53.3175 116.719 52.1724 121.097 51.0349 125.513L50.945 125.715L50.7804 125.857L50.5783 125.932H50.3538L50.1592 125.835L50.0095 125.67L49.9347 125.468V125.251C51.9629 117.213 54.4251 109.265 56.3635 101.032C56.8809 98.9367 57.2584 96.809 57.4936 94.6634C57.4936 94.6634 57.8454 93.1067 58.0998 91.8119C60.0681 81.671 60.0307 71.0286 57.3514 61.1796C57.2017 60.6407 56.5057 59.0167 56.3261 58.4853C56.2847 58.3461 56.2847 58.1979 56.3261 58.0587L56.4608 57.8791L56.6479 57.7669H56.8649L57.0895 57.7519Z" fill="#DCDCDC"/>
<path fill-rule="evenodd" clip-rule="evenodd" d="M42.7574 102.394C42.0689 95.3295 40.7667 88.1298 40.6394 81.0274C40.5047 73.7005 41.6498 66.4858 41.9716 59.114L45.332 59.0467C45.9457 66.4709 45.2496 73.6406 45.4143 81.0274C45.564 87.8379 46.4396 94.8355 46.275 101.639C45.0724 101.721 43.8878 101.976 42.7574 102.394Z" fill="#B35F5B"/>
<path d="M43.8426 60.4013L43.9623 60.4537C44.0896 60.5435 44.127 60.4013 44.1345 60.768C43.8346 61.8664 43.7233 63.0077 43.8052 64.1433C43.8501 64.4427 44.3515 64.6148 44.2617 65.1088C44.0671 66.1715 42.5254 66.4484 43.0119 67.5486C43.2738 68.1249 43.8875 68.5066 43.9549 69.1502C43.9047 69.852 43.6438 70.5224 43.2064 71.0736C42.967 71.5376 44.5162 71.9567 44.2692 73.1617C44.112 73.9101 43.1615 74.3292 42.8622 75.0177C42.488 75.8709 44.5536 76.7465 43.7154 78.2433C43.3486 78.887 42.0314 78.9918 43.3412 80.2191C43.6631 80.5625 43.8555 81.0071 43.8856 81.4768C43.9156 81.9466 43.7814 82.4121 43.5058 82.7937C43.1601 83.2131 42.9863 83.748 43.0193 84.2905C43.1541 85.0389 44.2692 85.3158 44.2018 86.4384C44.1345 87.561 43.2963 88.3394 43.3561 89.3797C43.401 90.1281 44.4338 90.5247 44.4862 91.5351C44.5386 92.5454 43.4609 93.5333 43.663 94.6185C43.7902 95.3145 45.07 95.4118 45.1149 96.5718C45.1598 97.7319 44.4937 98.6524 44.9353 99.775C45.04 100.037 45.2197 100.404 45.2197 100.404C45.3252 100.39 45.432 100.416 45.5192 100.477C45.6065 100.538 45.6678 100.629 45.6912 100.733C45.8259 101.152 45.6912 101.773 45.3469 101.773C45.0026 101.773 44.8305 101.227 44.5985 100.838C44.1544 100.049 43.9784 99.1379 44.0971 98.2408C44.2467 97.3876 44.7706 96.4671 43.8127 95.8234C43.4319 95.6073 43.1407 95.2626 42.9912 94.8511C42.8417 94.4396 42.8437 93.9883 42.9969 93.5782C43.2888 92.6203 44.2842 91.8718 43.3412 90.7268C43.1136 90.5235 42.9299 90.276 42.8012 89.9993C42.6726 89.7227 42.6016 89.4227 42.5928 89.1177C42.6377 88.0101 43.7303 86.9548 43.401 86.0118C43.1765 85.3757 42.4057 85.1586 42.2635 84.3578C42.2352 83.6113 42.4622 82.8774 42.9071 82.2773C43.0431 82.1128 43.1395 81.9193 43.1888 81.7117C43.2381 81.504 43.239 81.2878 43.1915 81.0798C42.8697 80.4137 41.6947 80.0395 42.226 78.9468C42.5179 78.3855 43.3037 78.0937 43.2439 77.45C43.1615 76.5669 41.9491 76.1328 42.1736 75.0252C42.3982 73.9175 44.2318 73.4535 43.3412 72.4207C42.8772 71.8894 42.1961 71.4628 42.7649 70.5347L42.9295 70.2504C42.9295 70.183 43.0044 70.1082 43.0343 70.0408C43.0687 69.9807 43.0987 69.9181 43.1241 69.8537C43.2415 69.6418 43.2862 69.3973 43.2514 69.1577C43.0643 68.4093 41.9192 68.0126 42.2335 66.8002C42.4206 66.0518 43.2514 65.6327 43.5582 65.0489C43.6181 64.9367 43.6405 65.004 43.4235 64.8693C43.2374 64.5755 43.1221 64.2424 43.0867 63.8964C43.0135 62.8325 43.1249 61.764 43.416 60.7381C43.5208 60.3938 43.6256 60.4462 43.6256 60.4462H43.7228C43.7613 60.4275 43.8013 60.4124 43.8426 60.4013Z" fill="#949494"/>
<path d="M43.0942 62.3322C43.1384 61.7839 43.2412 61.2419 43.401 60.7156C43.5058 60.3713 43.6106 60.4237 43.6106 60.4237H43.7079C43.7526 60.4192 43.7978 60.4192 43.8426 60.4237L43.9623 60.4761C44.0895 60.5659 44.127 60.4237 44.1344 60.7904C44.0526 61.1061 43.9877 61.4259 43.9399 61.7484L43.8725 62.3396L43.0942 62.3322ZM44.0596 87.2167C43.6924 87.8847 43.4658 88.6208 43.3935 89.3796C43.439 89.6614 43.5696 89.9226 43.7677 90.128L43.5657 90.2403L43.169 90.4573C42.8458 90.0987 42.6718 89.6302 42.6825 89.1476C42.7555 88.6209 42.9282 88.1129 43.1915 87.6508C43.4833 87.4936 43.7677 87.344 44.0596 87.2167ZM44.808 99.1912C44.8305 99.3911 44.8783 99.5872 44.9502 99.775C45.055 100.037 45.2346 100.404 45.2346 100.404C45.3401 100.39 45.447 100.416 45.5342 100.477C45.6214 100.538 45.6827 100.629 45.7061 100.733C45.7638 100.892 45.7811 101.063 45.7562 101.23C45.7314 101.397 45.6653 101.556 45.5639 101.691L45.2196 101.743C44.9502 101.624 44.8155 101.167 44.6508 100.838C44.4215 100.397 44.2576 99.9259 44.1644 99.4382L44.808 99.1912Z" fill="#696969"/>
<path d="M57.1718 60.6108C56.9024 59.8624 56.4234 58.8595 56.3261 58.4479C56.2847 58.3087 56.2847 58.1605 56.3261 58.0213L56.4608 57.8417L56.6479 57.7294H56.8649L57.0745 57.7893C57.5351 58.3657 57.8783 59.0268 58.0849 59.7352C58.1372 59.9148 58.1896 60.0944 58.2495 60.274C57.9277 60.3938 57.5909 60.4985 57.2766 60.6108H57.1718ZM58.8108 68.1398C59.0728 67.8105 59.6116 68.0575 59.881 68.252C61.0754 77.0745 60.6442 86.0411 58.6087 94.7082C58.6087 94.7082 58.4965 95.7111 58.3767 96.5493C57.5759 101.93 55.922 107.132 54.485 112.386C53.3175 116.719 52.1724 121.097 51.0349 125.513L50.945 125.715L50.7804 125.857L50.5783 125.932H50.3538L50.1592 125.835L50.0095 125.67L49.9347 125.468V125.251C51.9629 117.213 54.4251 109.265 56.3635 101.032C56.8809 98.9367 57.2584 96.809 57.4936 94.6633C57.4936 94.6633 57.8454 93.1067 58.0998 91.8119C59.6631 84.017 59.9035 76.0145 58.8108 68.1398Z" fill="#AAABAD"/>
<path d="M29.9747 94.2816V94.132C29.1498 82.8125 30.6788 71.4448 34.4651 60.7455C34.983 59.2518 35.5826 57.7877 36.2613 56.3598L36.3511 56.2476L36.7103 56.1952L37.0621 56.1428L37.1893 56.2401L37.2941 56.4272V56.6442L37.2342 56.8613C37.2342 56.9137 37.1818 56.9735 37.1519 57.0334C35.3367 61.0424 33.9494 65.2317 33.0132 69.5318C31.1122 77.7643 29.8848 89.2449 31.1122 95.2022C29.3011 95.8907 24.0473 101.1 24.7059 100.134C25.0052 99.7076 25.3121 99.281 25.6339 98.8619C26.285 98.2856 27.4825 96.9385 29.2861 95.4192V95.3743C29.0691 94.8429 29.6603 95.0525 29.8624 94.8953C29.8624 94.8953 29.8175 94.7232 29.81 94.7082C29.7352 94.5436 29.331 94.1245 29.7576 94.1993H29.8998L29.9747 94.2816Z" fill="#DCDCDC"/>
<path d="M36.9946 57.3403C36.366 58.7024 35.8047 60.102 35.3032 61.5239C34.8392 61.4266 34.48 61.3443 34.233 61.277C34.2929 61.0973 34.3602 60.9252 34.4201 60.7456C34.8018 59.6903 35.1685 58.6426 35.64 57.6098L36.9946 57.3403ZM29.9297 93.7878C30.2704 93.9031 30.6051 94.0355 30.9325 94.1844C30.9849 94.5362 31.0448 94.8805 31.1122 95.2023C30.304 95.6052 29.5497 96.1081 28.8669 96.6991C28.5307 96.7267 28.1976 96.7843 27.8716 96.8712L27.5872 96.9461C28.0811 96.4821 28.6349 95.9656 29.2711 95.4492V95.4043C29.054 94.873 29.6453 95.0825 29.8473 94.9254C29.8473 94.9254 29.8024 94.7532 29.795 94.7383C29.7201 94.5736 29.316 94.1545 29.7426 94.2293H29.8848L29.9821 94.2743V94.1246L29.9297 93.7878Z" fill="#AAABAD"/>
<path fill-rule="evenodd" clip-rule="evenodd" d="M46.6267 14C57.4786 14 66.8337 19.89 70.7254 28.2646C72.0318 31.0413 72.709 34.0721 72.7087 37.1408C72.7087 42.1102 71.4663 50.874 68.4502 54.6535C63.7203 60.5659 31.3142 61.5314 26.6142 57.4975C21.7197 53.2839 20.5372 43.6519 20.5372 37.1408C20.5372 24.3654 32.2273 14 46.6267 14Z" fill="#DCDCDC"/>
<path fill-rule="evenodd" clip-rule="evenodd" d="M50.451 14.2469C63.0392 15.8934 72.7086 25.518 72.7086 37.1407C72.7086 42.1102 71.4663 50.874 68.4502 54.6535C66.3397 57.2879 58.7209 58.9419 50.4884 59.6079C60.4048 56.1877 67.4249 47.3191 67.4249 36.9387C67.4249 26.5583 60.3524 17.6597 50.451 14.2469Z" fill="#B7B7B7"/>
<path fill-rule="evenodd" clip-rule="evenodd" d="M24.908 38.1885C24.908 27.7707 68.0686 27.7707 68.0686 38.1885C68.0686 48.6063 58.3992 57.0633 46.4846 57.0633C34.5699 57.0633 24.908 48.6063 24.908 38.1885Z" fill="#F3BE99"/>
<path fill-rule="evenodd" clip-rule="evenodd" d="M58.1596 39.1839C58.7435 39.1824 59.3146 39.3543 59.8007 39.6777C60.2867 40.0012 60.6658 40.4616 60.8899 41.0007C61.1141 41.5399 61.1731 42.1334 61.0595 42.7061C60.946 43.2788 60.665 43.8049 60.2522 44.2177C59.8393 44.6305 59.3132 44.9115 58.7405 45.0251C58.1679 45.1386 57.5743 45.0796 57.0352 44.8555C56.4961 44.6313 56.0357 44.2522 55.7122 43.7662C55.3888 43.2801 55.2169 42.709 55.2184 42.1252C55.2184 41.3451 55.5283 40.597 56.0799 40.0454C56.6315 39.4938 57.3796 39.1839 58.1596 39.1839Z" fill="#2C2C2C"/>
<path fill-rule="evenodd" clip-rule="evenodd" d="M34.7719 39.1839C35.3554 39.1839 35.9258 39.357 36.4109 39.6814C36.8959 40.0057 37.2739 40.4667 37.4968 41.0059C37.7198 41.5452 37.7777 42.1385 37.6634 42.7107C37.549 43.2829 37.2674 43.8082 36.8543 44.2203C36.4411 44.6324 35.915 44.9127 35.3425 45.0256C34.77 45.1385 34.1769 45.0791 33.6382 44.8547C33.0996 44.6304 32.6395 44.2513 32.3164 43.7654C31.9933 43.2795 31.8216 42.7087 31.8231 42.1251C31.8251 41.3444 32.1367 40.5963 32.6894 40.0449C33.2422 39.4935 33.9911 39.1839 34.7719 39.1839Z" fill="#2C2C2C"/>
<path d="M39.5317 49.9236C40.4523 51.0312 42.1886 51.5925 44.1494 51.6823C48.3405 51.8769 53.5569 49.9236 53.991 46.5857" stroke="#D47B62" stroke-width="0.95" stroke-linecap="round" stroke-linejoin="round"/>
<path d="M45.1599 43.4424C45.1503 43.5719 45.1503 43.702 45.1599 43.8316C45.1599 44.071 45.1599 44.318 45.1599 44.58C45.1599 45.1488 45.2721 46.4285 44.8081 46.8701C44.3441 47.3116 42.039 44.8644 41.9642 46.668C41.9455 46.8572 41.9455 47.0477 41.9642 47.2368C42.0096 47.7169 42.2228 48.1657 42.5663 48.5042C42.9098 48.8427 43.3616 49.0493 43.8423 49.0877C44.323 49.1262 44.8019 48.9939 45.1948 48.7143C45.5877 48.4346 45.8695 48.0254 45.9906 47.5586" stroke="#D47B62" stroke-width="0.95" stroke-linecap="round" stroke-linejoin="round"/>
<path fill-rule="evenodd" clip-rule="evenodd" d="M24.9079 38.1885C24.9079 27.7707 68.0685 27.7707 68.0685 38.1885C67.7991 40.3589 58.3991 37.1407 46.4845 37.1407C34.5698 37.1407 24.3615 40.9426 24.9079 38.1885Z" fill="#818181"/>
<path fill-rule="evenodd" clip-rule="evenodd" d="M54.5897 30.8916C59.6565 31.5577 64.0197 32.8823 66.3248 34.8656C67.3875 35.9807 68.0686 37.1108 68.0686 38.1885C68.0162 38.6526 67.5447 38.8696 66.7214 38.937C64.7232 38.7573 60.7342 37.1483 56.0117 37.1483C54.9211 37.1528 53.8326 37.2428 52.7561 37.4177C50.7803 37.253 48.6773 37.1483 46.4845 37.1483H46.2225C52.6514 34.0274 54.4924 31.8795 54.5897 30.8916Z" fill="#696969"/>
<path fill-rule="evenodd" clip-rule="evenodd" d="M25.2297 36.6992C27.0633 37.7469 36.134 34.888 46.4919 34.888C57.0744 34.888 65.6437 37.4251 67.6494 36.4522C67.9254 36.9813 68.0692 37.5693 68.0685 38.1661C67.7991 40.3364 58.3991 37.1183 46.4845 37.1183C34.5698 37.1183 24.3615 40.8603 24.9079 38.1661C24.9113 37.66 25.0209 37.1602 25.2297 36.6992Z" fill="#949494"/>
<path d="M57.8079 58.9044C61.0485 59.0616 66.7888 63.9337 68.0087 65.3108L68.0685 65.3707C71.1454 68.9012 73.0332 73.3106 73.4645 77.9738C73.4645 78.1235 73.4645 78.2732 73.4645 78.2732C73.58 79.1118 73.4636 79.9659 73.1278 80.743C72.9354 81.123 72.6827 81.4692 72.3794 81.7683C72.3794 81.7683 71.631 82.4044 70.8825 82.9059C68.8843 84.2455 66.6017 85.1062 64.4911 86.2737C63.1216 87.0221 59.2523 82.614 60.577 81.3866C61.6023 80.4586 62.7099 79.5904 63.8325 78.7372C64.2217 78.4379 64.5809 78.1385 64.9701 77.8167C64.3914 76.4187 63.5447 75.1475 62.4779 74.0746C61.0934 72.7275 61.3478 63.335 57.8079 58.9044Z" fill="#ED4040"/>
<path d="M25.0726 53.1492V53.1941V53.1492ZM25.4019 52.4008C26.2326 54.3317 29.9522 58.0213 33.3425 59.7127C33.5296 59.8025 32.7812 64.5699 32.0104 68.0949C31.5239 70.2877 31.0299 72.0016 30.753 71.7846C27.7589 69.2374 24.9152 66.5186 22.2362 63.6419C20.1315 61.2501 18.4736 58.4997 17.3416 55.5217C15.276 50.1481 23.254 42.4769 23.254 42.4769C24.0772 41.4142 30.289 40.9801 30.072 41.8707C28.5527 45.3583 26.9736 48.8758 25.4019 52.3858V52.4008Z" fill="#ED4040"/>
<path fill-rule="evenodd" clip-rule="evenodd" d="M31.1197 39.1016C31.1945 38.9369 31.7483 38.4505 31.5537 38.6001C31.5537 38.6001 32.3994 38.4355 32.4294 38.458C32.4853 38.5231 32.5262 38.5997 32.5491 38.6825C32.8934 39.7751 30.6706 41.0325 30.5509 41.3842C29.6004 44.2581 27.0259 49.7439 26.9885 49.033C26.8837 46.6156 22.498 43.5771 20.2528 46.1516C19.3846 46.1516 24.3615 39.4159 26.8238 38.0314C26.6449 37.7546 26.5039 37.455 26.4047 37.1408C26.3299 36.8788 26.1577 36.2651 26.4047 36.0331C26.6517 35.8011 27.9015 37.2156 27.6396 36.9312C27.5123 36.3474 27.1157 35.2248 27.4824 34.8431C27.8491 34.4615 28.4628 35.4494 28.5751 35.5915C28.8712 36.0872 29.0289 36.6532 29.0316 37.2306C29.0316 37.2904 29.4582 34.8207 30.0494 34.9853C31.3741 35.3371 29.9746 38.0239 30.0494 38.0837C30.4386 37.5748 31.9429 35.5392 32.5342 36.0181C33.1254 36.4971 31.0673 38.907 31.1197 39.1016Z" fill="#474747"/>
</g>
</g>
<defs>
<filter id="filter0_d_19_103" x="0" y="0" width="91" height="91" filterUnits="userSpaceOnUse" color-interpolation-filters="sRGB">
<feFlood flood-opacity="0" result="BackgroundImageFix"/>
<feColorMatrix in="SourceAlpha" type="matrix" values="0 0 0 0 0 0 0 0 0 0 0 0 0 0 0 0 0 0 127 0" result="hardAlpha"/>
<feOffset dy="2"/>
<feGaussianBlur stdDeviation="6"/>
<feComposite in2="hardAlpha" operator="out"/>
<feColorMatrix type="matrix" values="0 0 0 0 1 0 0 0 0 1 0 0 0 0 1 0 0 0 0.34 0"/>
<feBlend mode="normal" in2="BackgroundImageFix" result="effect1_dropShadow_19_103"/>
<feBlend mode="normal" in="SourceGraphic" in2="effect1_dropShadow_19_103" result="shape"/>
</filter>
</defs>
</svg>
