<svg width="153" height="38" viewBox="0 0 153 38" fill="none" xmlns="http://www.w3.org/2000/svg">
<g clip-path="url(#clip0_3_14)">
<mask id="mask0_3_14" style="mask-type:alpha" maskUnits="userSpaceOnUse" x="0" y="-1" width="154" height="40">
<path d="M128.89 38H129.687V34.3354H129.7L131.025 38H131.715L133.04 34.3354H133.054V38H133.85V33.2515H132.685L131.4 36.9692H131.386L130.068 33.2515H128.89V38H128.89ZM124.479 33.9696H125.991V38H126.828V33.9696H128.348V33.2515H124.479V33.9696H124.479ZM114.754 38L153.004 -1.21322e-05H129.983L91.7339 38H114.755H114.754ZM109.27 16.549H62.9658C48.8541 16.549 46.3844 17.2924 40.3396 23.2972C34.6865 28.9133 25.5037 38.0006 25.5037 38.0006H45.562L50.3472 33.2467C53.4933 30.1212 55.1157 29.7974 61.7218 29.7974H95.9351L109.269 16.5494L109.27 16.549ZM39.7225 20.5872C35.5477 24.5005 26.4638 33.2666 21.5678 38.0001H0.00372314C0.00372314 38.0001 17.2825 20.8836 26.8871 11.4913C36.7819 2.13381 41.7141 -0.000518799 59.8637 -0.000518799H125.929L111.625 14.2102H61.2063C48.4537 14.2102 45.5888 15.0882 39.7238 20.5871L39.7225 20.5872Z" fill="white"/>
</mask>
<g mask="url(#mask0_3_14)">
<path d="M114.754 38L153.004 -1.21322e-05H129.983L91.7339 38H114.755H114.754ZM109.27 16.549H62.9658C48.8541 16.549 46.3844 17.2924 40.3396 23.2972C34.6865 28.9133 25.5037 38.0006 25.5037 38.0006H45.562L50.3472 33.2467C53.4933 30.1212 55.1157 29.7974 61.7218 29.7974H95.9351L109.269 16.5494L109.27 16.549ZM39.7225 20.5872C35.5477 24.5005 26.4638 33.2666 21.5678 38.0001H0.00372314C0.00372314 38.0001 17.2825 20.8836 26.8871 11.4913C36.7819 2.13381 41.7141 -0.000518799 59.8637 -0.000518799H125.929L111.625 14.2102H61.2063C48.4537 14.2102 45.5888 15.0882 39.7238 20.5871L39.7225 20.5872Z" fill="url(#paint0_linear_3_14)"/>
</g>
</g>
<defs>
<linearGradient id="paint0_linear_3_14" x1="76.5039" y1="-0.000518799" x2="76.5039" y2="38.0006" gradientUnits="userSpaceOnUse">
<stop stop-color="#B61E1E"/>
<stop offset="1" stop-color="#F94646"/>
</linearGradient>
<clipPath id="clip0_3_14">
<rect width="153" height="38" fill="white"/>
</clipPath>
</defs>
</svg>
